<svg xmlns="http://www.w3.org/2000/svg" viewBox="0 0 449.55 97.13"><defs><style>.cls-1{fill:none;stroke:#32d3e0;stroke-miterlimit:10;stroke-width:4px;}.cls-2{fill:#32d3e0;}.cls-3{fill:#095e7c;}</style></defs><title>breno-logo</title><g id="Camada_2" data-name="Camada 2"><g id="Layer_1" data-name="Layer 1"><rect class="cls-1" x="2" y="2" width="79" height="93.13" rx="7.06" ry="7.06"/><path class="cls-2" d="M63.22,62.68V50.5c0-6.25-2.22-12.73-11.13-13.29l-3,4.37.83,0c6.66,0,7.4,4.84,7.4,7.53v.68C44.78,49.69,37.78,54,37.78,61.87c0,4.71,3.37,9.35,10,9.35a12.13,12.13,0,0,0,10-4.84h.2l.47,4.1h5.39A45.19,45.19,0,0,1,63.22,62.68ZM57.5,59.51a6.28,6.28,0,0,1-.34,1.89,8.09,8.09,0,0,1-7.87,5.45A5.24,5.24,0,0,1,43.7,61.2c0-6.33,7.34-7.47,13.8-7.34Z"/><path class="cls-2" d="M16.91,60.27c.12-2,.24-4.91.24-7.48v-35h5.2V36h.12c1.86-3.23,5.21-5.32,9.87-5.32,7.18,0,12.26,6,12.2,14.77,0,10.34-6.52,15.49-13,15.49-4.18,0-7.53-.62-9.68-4.45l-.18-1-.24,4.79Zm5.44-11.6a9.88,9.88,0,0,0,.24,1.91,8.13,8.13,0,0,0,7.9,6.16c5.5,0,8.79-4.49,8.79-11.12,0-5.8-3-10.77-8.61-10.77a8.4,8.4,0,0,0-8,6.46,10.4,10.4,0,0,0-.3,2.15Z"/><line class="cls-1" x1="24.81" y1="76.66" x2="62.69" y2="26.25"/><path class="cls-2" d="M100.59,70.11a21.14,21.14,0,0,1,3.07-.23,6.41,6.41,0,0,1,4.53,1.39,5.16,5.16,0,0,1,1.58,4,5.9,5.9,0,0,1-1.61,4.35,6.88,6.88,0,0,1-5,1.61,24,24,0,0,1-2.62-.13ZM102,80a10.12,10.12,0,0,0,1.47.08c3.08,0,4.76-1.73,4.76-4.75,0-2.64-1.48-4.32-4.53-4.32a8.53,8.53,0,0,0-1.7.15Z"/><path class="cls-2" d="M113.09,70V81.15h-1.45V70Z"/><path class="cls-2" d="M124.13,80.65a10.5,10.5,0,0,1-3.44.62A5.26,5.26,0,0,1,115,75.62c0-3.33,2.3-5.78,6.06-5.78a7,7,0,0,1,2.79.52l-.35,1.18a5.77,5.77,0,0,0-2.48-.48,4.19,4.19,0,0,0-4.5,4.5c0,2.83,1.71,4.51,4.32,4.51a4.68,4.68,0,0,0,1.93-.3V76.44h-2.28V75.27h3.69Z"/><path class="cls-2" d="M127.78,70V81.15h-1.45V70Z"/><path class="cls-2" d="M132.43,71.19H129V70h8.29v1.23h-3.42v10h-1.46Z"/><path class="cls-2" d="M139.12,77.63,138,81.15h-1.49L140.26,70H142l3.82,11.19h-1.54l-1.2-3.52Zm3.66-1.13-1.09-3.22c-.25-.73-.42-1.39-.58-2h0c-.16.66-.34,1.34-.56,2l-1.1,3.24Z"/><path class="cls-2" d="M147.46,70h1.45v10h4.78v1.21h-6.23Z"/><path class="cls-2" d="M158.82,70.11a21,21,0,0,1,3.07-.23,6.43,6.43,0,0,1,4.53,1.39,5.16,5.16,0,0,1,1.58,4,5.94,5.94,0,0,1-1.61,4.35,6.88,6.88,0,0,1-4.95,1.61,24,24,0,0,1-2.62-.13Zm1.44,9.9a10.06,10.06,0,0,0,1.46.08c3.09,0,4.77-1.73,4.77-4.75C166.5,72.7,165,71,162,71a8.46,8.46,0,0,0-1.7.15Z"/><path class="cls-2" d="M175.67,75.9h-4.35v4h4.84v1.21h-6.29V70h6v1.21h-4.59v3.54h4.35Z"/><path class="cls-2" d="M177.84,79.39a5.1,5.1,0,0,0,2.59.73c1.48,0,2.34-.78,2.34-1.91s-.6-1.64-2.11-2.22c-1.82-.65-2.95-1.6-2.95-3.17,0-1.75,1.44-3,3.62-3a5,5,0,0,1,2.47.55l-.4,1.18a4.4,4.4,0,0,0-2.12-.54c-1.53,0-2.11.92-2.11,1.68,0,1,.68,1.56,2.22,2.16,1.9.73,2.86,1.64,2.86,3.29s-1.28,3.22-3.92,3.22a5.79,5.79,0,0,1-2.86-.72Z"/><path class="cls-2" d="M187.67,70V81.15h-1.45V70Z"/><path class="cls-2" d="M198.71,80.65a10.5,10.5,0,0,1-3.44.62,5.26,5.26,0,0,1-5.74-5.65c0-3.33,2.3-5.78,6.05-5.78a6.92,6.92,0,0,1,2.79.52L198,71.54a5.77,5.77,0,0,0-2.48-.48,4.19,4.19,0,0,0-4.5,4.5c0,2.83,1.71,4.51,4.32,4.51a4.58,4.58,0,0,0,1.92-.3V76.44H195V75.27h3.69Z"/><path class="cls-2" d="M200.91,81.15V70h1.58l3.59,5.66a30.89,30.89,0,0,1,2,3.64l0,0c-.14-1.49-.17-2.85-.17-4.6V70h1.36V81.15h-1.46l-3.55-5.68a34.39,34.39,0,0,1-2.09-3.73h-.05c.08,1.42.11,2.76.11,4.62v4.78Z"/><path class="cls-2" d="M217.63,75.9h-4.35v4h4.85v1.21h-6.3V70h6v1.21h-4.6v3.54h4.35Z"/><path class="cls-2" d="M220,70.11a15,15,0,0,1,2.77-.23,4.58,4.58,0,0,1,3.24.91,2.77,2.77,0,0,1,.88,2.13,2.94,2.94,0,0,1-2.11,2.85v0a2.8,2.8,0,0,1,1.65,2.26,17.58,17.58,0,0,0,.86,3.07h-1.5a14.39,14.39,0,0,1-.74-2.67c-.33-1.55-.93-2.13-2.24-2.18h-1.36v4.85H220Zm1.45,5.1h1.47c1.55,0,2.53-.85,2.53-2.13,0-1.44-1-2.07-2.58-2.09a6.31,6.31,0,0,0-1.42.13Z"/><path class="cls-3" d="M132.73,46.86q0,6-4.17,9.16t-11.14,3.2H101.35V16.55h14.94q6.7,0,10.51,2.79t3.79,9q0,4.32-5,7.9a13,13,0,0,1,5.23,4.14A10.81,10.81,0,0,1,132.73,46.86Zm-9.48-18.51q0-3.33-2-4.61a10.85,10.85,0,0,0-5.87-1.29h-7V34.37h5.9a13.24,13.24,0,0,0,6.53-1.5A4.87,4.87,0,0,0,123.25,28.35ZM125.45,47a6.33,6.33,0,0,0-2.1-5.15,8.69,8.69,0,0,0-5.74-1.76h-9.23V53.39H117a10.68,10.68,0,0,0,6.18-1.6A5.47,5.47,0,0,0,125.45,47Z"/><path class="cls-3" d="M150.67,36a26.91,26.91,0,0,0-5.52,3.82V59.22h-7V28.79h3.77l2.32,5a30.29,30.29,0,0,1,5.18-3.45,11.08,11.08,0,0,1,5.11-1.57L156,34.44A11.74,11.74,0,0,0,150.67,36Z"/><path class="cls-3" d="M173.2,28q6.72,0,10.17,4.46a18,18,0,0,1,3.45,11.36v2.07H165.74q.93,8.16,9.72,8.15a13.33,13.33,0,0,0,4.36-.65,36.12,36.12,0,0,0,4.61-2l2.14,5.14A19.27,19.27,0,0,1,175.34,60q-8.29,0-12.65-4.3T158.33,44a18.65,18.65,0,0,1,1.79-8.37A13.26,13.26,0,0,1,165.26,30,15.19,15.19,0,0,1,173.2,28ZM173,34a6.49,6.49,0,0,0-4.86,1.88,8.9,8.9,0,0,0-2.29,5.27H180a9.65,9.65,0,0,0-2.32-5.33A6.21,6.21,0,0,0,173,34Z"/><path class="cls-3" d="M208.09,33.75q-3.83,0-8.91,4.2V59.22h-7V28.79h4.71l1.25,3.64A22.39,22.39,0,0,1,203.89,29a15.83,15.83,0,0,1,5.9-1.26q5.33,0,7.71,3.17c1.59,2.12,2.39,5,2.39,8.69V59.22H212.8V40.08Q212.8,33.75,208.09,33.75Z"/><path class="cls-3" d="M240.6,60a16.44,16.44,0,0,1-8.29-2,13.8,13.8,0,0,1-5.43-5.62A17.79,17.79,0,0,1,225,44a17.67,17.67,0,0,1,1.91-8.37,13.66,13.66,0,0,1,5.5-5.62A18.39,18.39,0,0,1,249,30a13.51,13.51,0,0,1,5.46,5.62,17.85,17.85,0,0,1,1.91,8.4,17.52,17.52,0,0,1-2,8.41A13.72,13.72,0,0,1,248.94,58,16.74,16.74,0,0,1,240.6,60Zm8.53-16a11,11,0,0,0-2.29-7.25,8.08,8.08,0,0,0-12.24,0A11,11,0,0,0,232.19,44a10.92,10.92,0,0,0,2.29,7.22A7.53,7.53,0,0,0,240.6,54a7.66,7.66,0,0,0,6.18-2.82A10.69,10.69,0,0,0,249.13,44Z"/><path class="cls-3" d="M273,59.22l16.31-42.67h6.22L312,58.78l-7,1-4.2-11.3H284.08L280,59.22Zm13-16.44H298.7l-6.4-16.63Z"/><path class="cls-3" d="M328.82,36a26.64,26.64,0,0,0-5.52,3.82V59.22h-7V28.79H320l2.32,5a30.29,30.29,0,0,1,5.18-3.45,11.08,11.08,0,0,1,5.11-1.57l1.44,5.65A11.74,11.74,0,0,0,328.82,36Z"/><path class="cls-3" d="M350,34.37a21.66,21.66,0,0,0-8.79,2.07l-1.94-5.77a16.6,16.6,0,0,1,5.05-1.88,25.37,25.37,0,0,1,5.55-.82,14.23,14.23,0,0,1,6.44,1.45,11.81,11.81,0,0,1,4.61,3.92,9.59,9.59,0,0,1,1.69,5.55V59.22h-4.7l-1.07-3.07a14.81,14.81,0,0,1-4,2.76A10.49,10.49,0,0,1,348.28,60q-5.28,0-8-2.64a9.32,9.32,0,0,1-2.73-7,8.61,8.61,0,0,1,3.1-7.09,12.65,12.65,0,0,1,8.19-2.51h6.65C355.41,36.49,353.57,34.37,350,34.37Zm-1.26,11.05a4.72,4.72,0,0,0-5,4.89,4,4,0,0,0,1.19,2.86,4.35,4.35,0,0,0,3.26,1.22,8.83,8.83,0,0,0,3.89-.94,12.12,12.12,0,0,0,3.51-2.57V45.42Z"/><path class="cls-3" d="M381.09,54.27c2.55,0,5.53-1.41,8.91-4.21V28.79h7.1V59.22h-4.77l-1.26-3.64A21.94,21.94,0,0,1,385.3,59a15.87,15.87,0,0,1-5.9,1.26q-10,0-10-11.86V28.79h7V47.93C376.39,52.15,378,54.27,381.09,54.27Zm8.35-42.11-5.77,10.1-4.9-1.32,3.33-8.78Z"/><path class="cls-3" d="M404.62,19.69a4,4,0,0,1,1.2-2.92,4,4,0,0,1,2.95-1.22,4.18,4.18,0,0,1,3,1.22A4,4,0,0,1,413,19.69a4,4,0,0,1-1.25,3,4.14,4.14,0,0,1-3,1.22,3.92,3.92,0,0,1-2.95-1.22A4.1,4.1,0,0,1,404.62,19.69Zm7.72,9.1V73.66h-7.09V28.79Z"/><path class="cls-3" d="M433.74,60a16.38,16.38,0,0,1-8.28-2A13.8,13.8,0,0,1,420,52.41,17.67,17.67,0,0,1,418.12,44,17.55,17.55,0,0,1,420,35.6,13.7,13.7,0,0,1,425.52,30a18.39,18.39,0,0,1,16.66,0,13.51,13.51,0,0,1,5.46,5.62,17.73,17.73,0,0,1,1.91,8.4,17.52,17.52,0,0,1-1.94,8.41A13.84,13.84,0,0,1,442.09,58,16.78,16.78,0,0,1,433.74,60Zm8.54-16A11.1,11.1,0,0,0,440,36.79a8.08,8.08,0,0,0-12.24,0A11,11,0,0,0,425.33,44a11,11,0,0,0,2.29,7.22A7.56,7.56,0,0,0,433.74,54a7.66,7.66,0,0,0,6.18-2.82A10.7,10.7,0,0,0,442.28,44Z"/></g></g></svg>