<svg xmlns="http://www.w3.org/2000/svg" viewBox="240 618 49 49">
  <defs>
    <style>
      .cls-1 {
        fill: #010101;
        fill-rule: evenodd;
      }
    </style>
  </defs>
  <path id="ico-linkedin" class="cls-1" d="M42.25,40.045V30.48c0-5.125-2.736-7.509-6.383-7.509a5.5,5.5,0,0,0-5,2.755V23.363H25.325c.073,1.566,0,16.682,0,16.682H30.87V30.729a3.781,3.781,0,0,1,.183-1.352A3.033,3.033,0,0,1,33.9,27.349c2.007,0,2.809,1.53,2.809,3.771v8.925H42.25ZM19.483,21.086a2.891,2.891,0,1,0,.037-5.765,2.89,2.89,0,1,0-.072,5.765ZM28.5,53A24.5,24.5,0,1,1,53,28.5,24.5,24.5,0,0,1,28.5,53ZM22.256,40.045V23.363H16.711V40.045Z" transform="translate(236 614)"/>
</svg>
