<svg xmlns="http://www.w3.org/2000/svg" viewBox="0 0 129 151"><defs><style>.cls-1,.cls-2{fill:none;stroke-miterlimit:10;stroke-width:6px;}.cls-1{stroke:#3a0537;}.cls-2{stroke:#000;}</style></defs><title>Ativo 2</title><g id="Camada_2" data-name="Camada 2"><g id="Layer_1" data-name="Layer 1"><rect class="cls-1" x="3" y="3" width="123" height="145"/><path d="M98.32,97.47v-19c0-9.72-3.46-19.82-17.33-20.68l-4.6,6.79c.43,0,.86,0,1.29,0C88,64.57,89.2,72.12,89.2,76.31v1c-19.59-.1-30.49,6.6-30.49,18.86,0,7.33,5.24,14.56,15.51,14.56a18.89,18.89,0,0,0,15.51-7.54H90l.73,6.39h8.38A71.39,71.39,0,0,1,98.32,97.47Zm-8.91-4.92a9.62,9.62,0,0,1-.52,2.93A12.62,12.62,0,0,1,76.63,104c-4.71,0-8.7-2.83-8.7-8.8,0-9.85,11.42-11.63,21.48-11.42Z"/><path d="M26.22,93.72c.19-3.07.37-7.63.37-11.64V27.61h8.1V55.92h.19c2.89-5,8.1-8.29,15.36-8.29,11.17,0,19.09,9.31,19,23,0,16.11-10.15,24.12-20.2,24.12-6.52,0-11.73-2.51-15.08-8.47h-.28l-.37,7.45Zm8.47-18.06a15.32,15.32,0,0,0,.37,3,12.64,12.64,0,0,0,12.29,9.59c8.57,0,13.69-7,13.69-17.32,0-9-4.66-16.76-13.41-16.76A13.06,13.06,0,0,0,35.16,64.21a16.16,16.16,0,0,0-.47,3.35Z"/><line class="cls-2" x1="38.51" y1="119.25" x2="97.49" y2="40.75"/></g></g></svg>